<?xml version="1.0" encoding="UTF-8"?>
<svg width="16px" height="16px" viewBox="0 0 16 16" version="1.1" xmlns="http://www.w3.org/2000/svg" xmlns:xlink="http://www.w3.org/1999/xlink">
    <title>rili</title>
    <g id="页面-1" stroke="none" stroke-width="1" fill="none" fill-rule="evenodd">
        <g id="请假申请" transform="translate(-406.000000, -248.000000)" fill="#C1C1C1">
            <g id="编组-5" transform="translate(248.000000, 72.000000)">
                <g id="1" transform="translate(24.000000, 128.000000)">
                    <g id="编组-7" transform="translate(134.000000, 48.000000)">
                        <path d="M7.4642184,9.61546032 L8.53558578,9.61546032 C8.83477752,9.61546032 9.07133066,9.37769471 9.07133066,9.07696944 C9.07133066,8.77617037 8.83477752,8.53838016 8.53558578,8.53838016 L7.4642184,8.53838016 C7.16502666,8.53838016 6.92847352,8.77617037 6.92847352,9.07696944 C6.92866934,9.37769471 7.16502666,9.61546032 7.4642184,9.61546032 Z M7.4642184,11.769104 L8.53558578,11.769104 C8.83477752,11.769104 9.07133066,11.5313384 9.07133066,11.2306131 C9.07133066,10.9299124 8.83477752,10.6921468 8.53558578,10.6921468 L7.4642184,10.6921468 C7.16502666,10.6921468 6.92847352,10.9299124 6.92847352,11.2306131 C6.92847352,11.5313384 7.16502666,11.769104 7.4642184,11.769104 Z M13.3571429,2.07705556 L11.2141878,2.07705556 L11.2141878,1.53849087 C11.2141878,1.23776561 10.9970455,1 10.6978538,1 C10.3985886,1 10.1849711,1.23776561 10.1849711,1.53849087 L10.1849711,2.07705556 L5.81407423,2.07705556 L5.81407423,1.53849087 C5.81407423,1.23776561 5.61117802,1 5.31198627,1 C5.01269662,1 4.78551846,1.23776561 4.78551846,1.53849087 L4.78551846,2.07705556 L2.64285714,2.07705556 C1.4647667,2.07705556 0.5,3.046595 0.5,4.23089603 L0.5,12.8461595 C0.5,14.0302883 1.46457088,15 2.64285714,15 L13.3571429,15 C14.5351354,15 15.5,14.0304852 15.5,12.8461595 L15.5,4.23072381 C15.5,3.046595 14.5353312,2.07705556 13.3571429,2.07705556 Z M14.5356984,12.8910604 C14.5356984,13.4941102 14.0463389,13.9859779 13.4463398,13.9859779 L2.55356225,13.9859779 C1.95356323,13.9859779 1.46420371,13.4941102 1.46420371,12.8910604 L1.46420371,6.32180145 L14.5355026,6.32180145 L14.5356984,12.8910604 Z M14.5356984,5.28644837 L1.46420371,5.28644837 L1.46420371,4.19150626 C1.46420371,3.58843191 1.95356323,3.09656416 2.55356225,3.09656416 L4.79871198,3.09656416 L4.79871198,3.643986 C4.79871198,3.94980414 5.04052784,4.19130944 5.34468857,4.19130944 C5.64875139,4.19130944 5.84065708,3.94960731 5.84065708,3.643986 L5.84065708,3.09656416 L10.1585841,3.09656416 L10.1585841,3.643986 C10.1585841,3.94980414 10.4028722,4.19130944 10.707033,4.19130944 C11.0110958,4.19130944 11.1750723,3.94960731 11.1750723,3.643986 L11.1750723,3.09656416 L13.4461685,3.09656416 C14.046143,3.09656416 14.5355026,3.58843191 14.5355026,4.19150626 L14.5355026,5.28644837 L14.5356984,5.28644837 Z M4.2499694,11.769104 L5.32136126,11.769104 C5.62052852,11.769104 5.85708166,11.5313384 5.85708166,11.2306131 C5.85708166,10.9299124 5.62052852,10.6921468 5.32136126,10.6921468 L4.2499694,10.6921468 C3.95080214,10.6921468 3.71422452,10.9299124 3.71422452,11.2306131 C3.71422452,11.5313384 3.95080214,11.769104 4.2499694,11.769104 Z M10.6784429,9.61546032 L11.7498348,9.61546032 C12.049002,9.61546032 12.2855552,9.37769471 12.2855552,9.07696944 C12.2855552,8.77617037 12.049002,8.53838016 11.7498348,8.53838016 L10.6784429,8.53838016 C10.3792757,8.53838016 10.1427225,8.77617037 10.1427225,9.07696944 C10.1427225,9.37769471 10.3792757,9.61546032 10.6784429,9.61546032 Z M4.2499694,9.61546032 L5.32136126,9.61546032 C5.62052852,9.61546032 5.85708166,9.37769471 5.85708166,9.07696944 C5.85708166,8.77617037 5.62052852,8.53838016 5.32136126,8.53838016 L4.2499694,8.53838016 C3.95080214,8.53838016 3.71422452,8.77617037 3.71422452,9.07696944 C3.71422452,9.37769471 3.95080214,9.61546032 4.2499694,9.61546032 Z M10.6784429,11.769104 L11.7498348,11.769104 C12.049002,11.769104 12.2855552,11.5313384 12.2855552,11.2306131 C12.2855552,10.9299124 12.049002,10.6921468 11.7498348,10.6921468 L10.6784429,10.6921468 C10.3792757,10.6921468 10.1427225,10.9299124 10.1427225,11.2306131 C10.1427225,11.5313384 10.3792757,11.769104 10.6784429,11.769104 Z" id="rili"></path>
                    </g>
                </g>
            </g>
        </g>
    </g>
</svg>