<?xml version="1.0" encoding="UTF-8"?>
<svg width="114px" height="94px" viewBox="0 0 114 94" version="1.1" xmlns="http://www.w3.org/2000/svg" xmlns:xlink="http://www.w3.org/1999/xlink">
    <title>编组 14</title>
    <g id="页面-1" stroke="none" stroke-width="1" fill="none" fill-rule="evenodd">
        <g id="添加/编辑考勤规则（无添加）" transform="translate(-1152.000000, -356.000000)">
            <g id="编组-8" transform="translate(1002.000000, 107.000000)">
                <g id="编组-14" transform="translate(150.000000, 249.000000)">
                    <path d="M43.1759666,-1.70530257e-13 C45.1272034,-1.70530257e-13 46.7089935,1.59798105 46.7089935,3.56919057 C46.7089935,4.93591214 45.9485913,6.12321436 44.8318669,6.7228811 L46.2345301,12.013 L46.3705226,11.9780016 C57.7068374,9.10831369 69.0026126,13.6416286 72.7687165,22.5391766 C81.6951772,22.8159707 88.0644064,25.3113352 89.2785619,29.8426253 C90.0294685,32.6450467 88.7137313,35.7834125 85.6552674,38.9486188 C85.3833662,39.2300096 84.935712,39.2345854 84.6554039,38.9588391 C84.3750958,38.6830928 84.3682807,38.231444 84.6401819,37.9500533 C87.3870452,35.1073226 88.5090602,32.4310331 87.9135052,30.2083912 C86.9020095,26.433438 81.1335422,24.2523488 72.9303178,23.9772852 L72.4985301,23.964 L72.467756,23.974353 C72.3404094,24.0041103 72.2107979,23.9967065 72.0917903,23.9579051 C65.958101,23.848744 58.5561509,24.7723178 50.8027618,26.8498322 C42.3765665,29.1076244 34.9912884,32.3381817 29.5861226,35.8167621 C29.5137535,36.0574202 29.3152337,36.2503489 29.0529713,36.3029428 C28.9791458,36.3177477 28.9056631,36.3203509 28.8345787,36.3121344 C22.7317082,40.4059518 19.4000174,44.7938153 20.3431948,48.3138013 C22.130595,54.9844695 38.7720867,56.6781473 57.4539382,51.6723603 C63.7336226,49.9897239 69.5892783,47.7305153 74.5254535,45.1219949 C74.8706588,44.9395712 75.298515,45.0747675 75.481097,45.4239643 C75.663679,45.773161 75.5318468,46.2041245 75.1866414,46.3865482 C70.155284,49.0453676 64.2018395,51.3423048 57.823448,53.0513896 C49.5415889,55.2705071 41.6291333,56.2193859 35.1185286,55.9705043 L35.1188933,63.0927456 C35.1188933,63.4869875 34.8025353,63.8065837 34.4122879,63.8065837 C34.0499154,63.8065837 33.7512535,63.5310135 33.7104364,63.1759942 L33.7056825,63.0927456 L33.7059615,55.8962355 C32.0049102,55.7815776 30.411629,55.5799568 28.9464518,55.2928005 L25.0546285,67.5047726 C24.9350113,67.8800378 24.5369122,68.0862889 24.1654492,67.9654474 C23.8205193,67.8532373 23.6198444,67.4984498 23.6887086,67.14788 L23.7094421,67.0671665 L27.5611035,54.9862419 C22.9109348,53.8319439 19.7905444,51.7115088 18.978138,48.6795671 C17.8478339,44.4612145 21.468822,39.5370879 28.099606,35.0825313 C26.581737,25.5449054 33.7891048,15.8562584 44.8751294,12.3999918 L43.4749744,7.12577898 C43.3764004,7.13412429 43.2766756,7.13838114 43.1759666,7.13838114 C41.2247297,7.13838114 39.6429397,5.54040009 39.6429397,3.56919057 C39.6429397,1.59798105 41.2247297,-1.70530257e-13 43.1759666,-1.70530257e-13 Z M79.7498267,43.0800399 L79.799676,43.1465026 L84.3868081,50.0557722 C84.6041838,50.3831897 84.5176667,50.8266355 84.1935666,51.0462362 C83.8926166,51.2501512 83.4926354,51.189354 83.2629875,50.9174795 L83.2131381,50.8510167 L78.626006,43.9417472 C78.4086303,43.6143297 78.4951475,43.1708839 78.8192475,42.9512831 C79.1201976,42.7473682 79.5201788,42.8081654 79.7498267,43.0800399 Z M68.1562974,38.641673 C68.8705586,41.3073321 63.6435927,45.0239858 56.4815423,46.9430514 C49.319492,48.862117 42.9344799,48.2568834 42.2202187,45.5912244 C41.515481,42.9611074 46.5945939,39.3078355 53.6095333,37.3675606 L53.8949738,37.289846 C61.0570241,35.3707804 67.4420362,35.976014 68.1562974,38.641673 Z M29.7504643,39.9749344 C31.7017012,39.9749344 33.2834912,41.5729154 33.2834912,43.5441249 C33.2834912,45.5153344 31.7017012,47.1133155 29.7504643,47.1133155 C27.7992274,47.1133155 26.2174374,45.5153344 26.2174374,43.5441249 C26.2174374,41.5729154 27.7992274,39.9749344 29.7504643,39.9749344 Z M83.0278515,40.034165 L83.1014543,40.0719082 L92.4263956,45.5577992 C92.7636284,45.7561943 92.8778082,46.1932048 92.6814233,46.5338895 C92.4990659,46.8502396 92.1130481,46.9722947 91.7888257,46.8292709 L91.7152229,46.7915276 L82.3902816,41.3056367 C82.0530488,41.1072416 81.938869,40.6702311 82.1352539,40.3295464 C82.3176113,40.0131963 82.703629,39.8911412 83.0278515,40.034165 Z M54.2644836,38.6688753 C50.9306431,39.5621752 47.952397,40.8848332 45.9226138,42.3281181 C44.1800764,43.5671559 43.439145,44.6800922 43.5852755,45.2254585 C43.7314059,45.7708248 44.9295395,46.3641903 47.05814,46.5659597 C49.5376263,46.8009896 52.7781921,46.4573219 56.1120326,45.564022 C59.445873,44.6707222 62.4241191,43.3480642 64.4539023,41.9047793 C66.1964397,40.6657415 66.9373711,39.5528052 66.7912406,39.0074389 C66.6451102,38.4620726 65.4469766,37.8687071 63.3183761,37.6669377 C60.8388898,37.4319078 57.5983241,37.7755755 54.2644836,38.6688753 Z M29.7504643,41.4026106 C28.5797222,41.4026106 27.6306482,42.3613992 27.6306482,43.5441249 C27.6306482,44.7268506 28.5797222,45.6856393 29.7504643,45.6856393 C30.9212064,45.6856393 31.8702805,44.7268506 31.8702805,43.5441249 C31.8702805,42.3613992 30.9212064,41.4026106 29.7504643,41.4026106 Z M43.1759666,32.1227151 C45.1272034,32.1227151 46.7089935,33.7206962 46.7089935,35.6919057 C46.7089935,37.6631152 45.1272034,39.2610962 43.1759666,39.2610962 C41.2247297,39.2610962 39.6429397,37.6631152 39.6429397,35.6919057 C39.6429397,33.7206962 41.2247297,32.1227151 43.1759666,32.1227151 Z M43.1759666,33.5503913 C42.0052244,33.5503913 41.0561504,34.50918 41.0561504,35.6919057 C41.0561504,36.8746314 42.0052244,37.83342 43.1759666,37.83342 C44.3467087,37.83342 45.2957827,36.8746314 45.2957827,35.6919057 C45.2957827,34.50918 44.3467087,33.5503913 43.1759666,33.5503913 Z M76.3864195,27.1258483 C78.3376564,27.1258483 79.9194464,28.7238294 79.9194464,30.6950389 C79.9194464,32.6662484 78.3376564,34.2642294 76.3864195,34.2642294 C74.4351826,34.2642294 72.8533926,32.6662484 72.8533926,30.6950389 C72.8533926,28.7238294 74.4351826,27.1258483 76.3864195,27.1258483 Z M60.8411011,27.1258483 C62.792338,27.1258483 64.374128,28.7238294 64.374128,30.6950389 C64.374128,32.6662484 62.792338,34.2642294 60.8411011,34.2642294 C58.8898642,34.2642294 57.3080742,32.6662484 57.3080742,30.6950389 C57.3080742,28.7238294 58.8898642,27.1258483 60.8411011,27.1258483 Z M46.3553572,13.4572526 C35.5528602,16.351773 28.3905397,25.3588684 29.4100143,34.2336967 C34.9118137,30.7871166 42.2006839,27.6767128 50.433252,25.4708029 C57.9126981,23.4666913 65.0908546,22.4986007 71.2072328,22.5131444 C67.4482532,14.6049333 56.9268874,10.6246196 46.3553572,13.4572526 Z M76.3864195,28.5535245 C75.2156774,28.5535245 74.2666034,29.5123132 74.2666034,30.6950389 C74.2666034,31.8777646 75.2156774,32.8365532 76.3864195,32.8365532 C77.5571616,32.8365532 78.5062357,31.8777646 78.5062357,30.6950389 C78.5062357,29.5123132 77.5571616,28.5535245 76.3864195,28.5535245 Z M60.8411011,28.5535245 C59.670359,28.5535245 58.721285,29.5123132 58.721285,30.6950389 C58.721285,31.8777646 59.670359,32.8365532 60.8411011,32.8365532 C62.0118432,32.8365532 62.9609173,31.8777646 62.9609173,30.6950389 C62.9609173,29.5123132 62.0118432,28.5535245 60.8411011,28.5535245 Z M43.1759666,1.42767623 C42.0052244,1.42767623 41.0561504,2.38646486 41.0561504,3.56919057 C41.0561504,4.75191628 42.0052244,5.71070491 43.1759666,5.71070491 C44.3467087,5.71070491 45.2957827,4.75191628 45.2957827,3.56919057 C45.2957827,2.38646486 44.3467087,1.42767623 43.1759666,1.42767623 Z" id="形状结合" fill="#979797" fill-rule="nonzero"></path>
                    <path d="M112.917645,85.0782364 C113.301151,85.0782364 113.612044,85.3891294 113.612044,85.7726354 C113.612044,86.1561414 113.301151,86.4670344 112.917645,86.4670344 C101.230164,86.4670344 87.3810508,88.8069107 71.3752078,93.4908356 C71.0071383,93.5985469 70.6214418,93.3874849 70.5137306,93.0194154 C70.4060193,92.651346 70.6170813,92.2656495 70.9851508,92.1579382 C87.1088367,87.4395278 101.084701,85.0782364 112.917645,85.0782364 Z M102.143697,74.0032923 L102.167941,73.8353493 C102.6006,70.9841757 103.57851,69.3963449 105.221271,69.1530937 C107.331017,68.8406937 109.162211,70.9482386 110.899001,75.2566577 C111.042387,75.6123506 110.870277,76.0169335 110.514584,76.1603188 C110.158891,76.3037042 109.754308,76.1315948 109.610923,75.7759018 C108.098225,72.023384 106.641434,70.3467444 105.424698,70.5269122 C104.263671,70.6988309 103.481512,72.6293455 103.321704,76.483839 C103.540348,76.993983 103.758449,77.5302809 103.975783,78.092071 C104.114153,78.4497449 103.936372,78.8518679 103.578698,78.9902378 C103.221025,79.1286077 102.818902,78.9508267 102.680532,78.5931529 C102.502589,78.133188 102.324918,77.6929982 102.147618,77.2724744 C102.005541,77.1442706 101.918587,76.9568139 101.92228,76.7504941 C99.9312059,72.2038628 97.9921758,70.1433284 96.2491657,70.4122685 C94.3016179,70.712768 93.0902846,73.9414199 92.8946536,80.2562163 C92.8827783,80.6395384 92.5624076,80.9406556 92.1790855,80.9287804 C91.7957634,80.9169051 91.4946463,80.5965344 91.5065215,80.2132123 C91.5153211,79.9291686 91.5261287,79.6504244 91.5389634,79.3769905 L91.993369,79.413058 C60.1667153,76.8591458 30.8423176,79.2033584 4.01755574,86.4430473 C3.64729749,86.5429756 3.26613593,86.32383 3.16620757,85.9535717 C3.06627921,85.5833135 3.28542488,85.2021519 3.65568313,85.1022236 C8.45053134,83.8081502 13.3242893,82.6696023 18.2769424,81.6865649 C12.508123,75.7328278 6.90626325,75.4394349 1.16569996,80.7446836 C0.884051733,81.004974 0.444723626,80.9876601 0.184433167,80.7060119 C-0.0758572925,80.4243637 -0.0585434018,79.9850356 0.223104824,79.7247451 C6.71297173,73.7270136 13.3496681,74.2665185 19.7996753,81.2760703 C19.8283485,81.307231 19.8536331,81.3403067 19.8755478,81.3748443 C42.1997071,77.1092558 66.1164651,75.9814473 91.6239854,77.9905104 C92.0588768,72.4575153 93.464522,69.4366962 96.0373853,69.0397128 C98.2176022,68.7033133 100.223441,70.389832 102.143697,74.0032923 Z" id="形状结合" fill="#979797" fill-rule="nonzero"></path>
                    <ellipse id="椭圆形" fill="#EFF8F7" cx="57.2775301" cy="85.25" rx="24.5" ry="5.25"></ellipse>
                </g>
            </g>
        </g>
    </g>
</svg>