<?xml version="1.0" encoding="UTF-8"?>
<svg width="16px" height="16px" viewBox="0 0 16 16" version="1.1" xmlns="http://www.w3.org/2000/svg" xmlns:xlink="http://www.w3.org/1999/xlink">
    <title>形状结合</title>
    <g id="页面-1" stroke="none" stroke-width="1" fill="none" fill-rule="evenodd">
        <g id="开发线索-房源记录（语音记录）" transform="translate(-284.000000, -314.000000)" fill="#247257" fill-rule="nonzero">
            <g id="弹窗" transform="translate(0.000000, 100.000000)">
                <g id="2" transform="translate(16.000000, 128.000000)">
                    <g id="内容" transform="translate(24.000000, 30.000000)">
                        <g id="语音" transform="translate(88.000000, 46.000000)">
                            <path d="M164,10 C168.418278,10 172,13.581722 172,18 C172,22.418278 168.418278,26 164,26 C159.581722,26 156,22.418278 156,18 C156,13.581722 159.581722,10 164,10 Z M164,10.9411765 C160.101519,10.9411765 156.941176,14.1015194 156.941176,18 C156.941176,21.8984806 160.101519,25.0588235 164,25.0588235 C167.898481,25.0588235 171.058824,21.8984806 171.058824,18 C171.058824,14.1015194 167.898481,10.9411765 164,10.9411765 Z M162.5,15 C162.776142,15 163,15.2238576 163,15.5 L163,20.5 C163,20.7761424 162.776142,21 162.5,21 C162.223858,21 162,20.7761424 162,20.5 L162,15.5 C162,15.2238576 162.223858,15 162.5,15 Z M165.5,15 C165.776142,15 166,15.2238576 166,15.5 L166,20.5 C166,20.7761424 165.776142,21 165.5,21 C165.223858,21 165,20.7761424 165,20.5 L165,15.5 C165,15.2238576 165.223858,15 165.5,15 Z" id="形状结合"></path>
                        </g>
                    </g>
                </g>
            </g>
        </g>
    </g>
</svg>