<?xml version="1.0" encoding="UTF-8"?>
<svg width="42px" height="30px" viewBox="0 0 42 30" version="1.1" xmlns="http://www.w3.org/2000/svg" xmlns:xlink="http://www.w3.org/1999/xlink">
    <title>编组 12</title>
    <g id="页面-1" stroke="none" stroke-width="1" fill="none" fill-rule="evenodd">
        <g id="租赁房源首页" transform="translate(-259.000000, -1166.000000)">
            <g id="房源列表" transform="translate(189.000000, 1019.000000)">
                <g id="编组-11" transform="translate(24.000000, 66.000000)">
                    <g id="编组-10" transform="translate(0.000000, 16.000000)">
                        <g id="编组-7" transform="translate(24.000000, 0.000000)">
                            <g id="矩形-2" transform="translate(0.000000, 48.000000)">
                                <g id="编组-12" transform="translate(22.000000, 17.000000)">
                                    <rect id="矩形" fill-opacity="0.77" fill="#FFFFFF" x="0" y="0" width="42" height="30" rx="15"></rect>
                                    <g id="编组" transform="translate(15.000000, 8.000000)" fill="#000000" fill-rule="nonzero">
                                        <path d="M10.4655188,8.77050312 C10.4081581,8.78923206 10.3501027,8.80528888 10.2921028,8.81910689 L10.2921028,8.71910689 C10.3491856,8.73677659 10.4068798,8.75394077 10.4655188,8.77050312 Z M12.4564819,7.18169151 C12.1514336,7.80560016 11.7402376,8.21639003 11.2694298,8.46949844 L11.0803953,8.50787163 C9.2363773,8.30377689 8.06780631,7.75080944 7.60721174,6.86407961 C7.1650843,6.01343183 7.52625648,5.08740112 7.63908804,4.83977459 C11.565571,3.97530964 12.0698114,3.43295456 12.0682412,3.05667245 C12.0676159,2.95217932 12.0239423,2.86482057 11.9579525,2.79227699 C13.935826,3.57485099 12.4564819,7.18169151 12.4564819,7.18169151 Z M11.286966,2.78585331 C11.1381034,2.74007256 10.9009486,2.7007295 10.7794879,2.68910509 C10.5754879,2.6694406 10.1384601,2.71427959 9.79547717,2.79230507 C9.79547717,2.79230507 10.6124639,2.97417711 9.9449651,3.29275888 C9.82671428,2.84262595 9.57840146,2.3234775 9.43431888,2.08874043 C8.60203321,0.733506346 6.96364103,0.00670696119 5.26719341,0.00670696119 C2.36457353,0.00670696119 0.00225289725,2.39471389 0.00225289725,5.33218829 C0.00225289725,6.92021971 0.686620821,8.39701106 1.88547012,9.41398483 L1.88547012,12.6996572 L7.72162739,13.9946047 L7.72162739,11.5169619 L9.08879305,11.5169619 C9.75213707,11.5169619 10.2920889,10.9700948 10.2920889,10.2981283 L10.2920889,8.71909282 C10.0428451,8.67366346 9.80791365,8.62044702 9.58700278,8.55916238 C8.45319837,8.24545807 7.69423933,7.72726544 7.32352093,7.01145793 C6.73189166,5.86903338 7.36272017,4.67180403 7.38980253,4.62152532 L7.42455521,4.55671259 L7.49593646,4.54123681 C8.31930121,4.36098122 9.03045968,4.18655893 9.62429833,4.018237 C9.74928847,3.98309672 9.86881767,3.94825161 9.98323333,3.91344868 C10.3839383,3.79187736 10.7208628,3.6741996 10.9920893,3.56071055 C11.7415299,3.24761065 11.7495059,3.06542939 11.7495059,3.0579937 C11.7491585,2.9805867 11.5308044,2.86065995 11.286966,2.78585331 Z M0.726487042,5.67397671 C0.718830621,5.56045956 0.708006014,5.44727974 0.708006014,5.33282081 C0.708006014,5.21029369 0.717246535,5.09067617 0.726487042,4.97169119 L0.809373775,4.4396533 C1.44592724,4.66310331 3.10506542,5.2019022 4.60864333,5.32154781 C4.49803505,5.5672346 4.43650572,5.8406822 4.43650572,6.12831241 C4.43650572,6.57872647 4.58727203,6.99340989 4.84068452,7.32361607 C4.00873234,7.18590834 3.19018934,6.95374354 2.4987764,6.72063698 C1.6920029,6.44849659 1.0589372,6.17506305 0.779734657,6.04930302 L0.726487042,5.67397671 Z M9.58700278,8.80617044 L9.58700278,10.2987609 C9.58700278,10.5770297 9.36293763,10.8030942 9.08879305,10.8030942 L7.01655515,10.8030942 L7.01655515,13.1081981 L2.59122324,12.1260695 L2.59122324,9.07057995 L2.45607547,8.96351454 C1.74873827,8.4018323 1.23395119,7.66086436 0.953108964,6.8283349 C2.00216463,7.26973899 4.23314487,8.09487493 6.24866129,8.09487493 C6.40645873,8.09487493 6.56264431,8.08970229 6.7169123,8.07907585 L6.88201878,8.07907585 C7.64642487,8.42248074 8.63138054,8.76424105 9.58700278,8.80617044 Z M7.46663082,3.90085441 C7.2384248,3.9389043 6.85653442,4.03112646 6.44150322,4.17749275 L6.36499453,4.17749275 C5.85658549,4.17749275 5.39439292,4.37644296 5.04981199,4.70181384 C3.52519627,4.6685852 1.58522976,4.02917265 0.967476939,3.81187923 C1.58999593,2.01456634 3.28037124,0.719632973 5.26719341,0.719632973 C6.75772343,0.719632973 8.27340434,1.32743332 8.91219498,2.57336708 C9.01229825,2.7687611 9.14297167,3.17730199 9.29918502,3.51910447 C8.88033256,3.635475 8.28967597,3.76348403 7.46663082,3.90085441 Z" id="形状"></path>
                                    </g>
                                </g>
                            </g>
                        </g>
                    </g>
                </g>
            </g>
        </g>
    </g>
</svg>