<?xml version="1.0" encoding="UTF-8"?>
<svg width="26px" height="18px" viewBox="0 0 26 18" version="1.1" xmlns="http://www.w3.org/2000/svg" xmlns:xlink="http://www.w3.org/1999/xlink">
    <title>编组</title>
    <g id="页面-1" stroke="none" stroke-width="1" fill="none" fill-rule="evenodd">
        <g id="请假申请详情页-(店长未审核)" transform="translate(-460.000000, -668.000000)" fill="#606266" fill-rule="nonzero">
            <g id="编组-5" transform="translate(248.000000, 189.000000)">
                <g id="2" transform="translate(24.000000, 438.000000)">
                    <g id="编组" transform="translate(188.000000, 41.000000)">
                        <path d="M1.69520586,7.46268657 C2.63079526,7.46268657 3.38894528,8.13134328 3.38894528,8.95522388 C3.38894528,9.77910448 2.63079526,10.4477612 1.69520586,10.4477612 C0.758150022,10.4477612 0,9.77910448 0,8.95522388 C0,8.13134328 0.758150022,7.46268657 1.69520586,7.46268657 Z M8.79864636,7.46268657 C9.60853939,7.46268657 10.2650874,8.13091829 10.2650874,8.95522388 C10.2650874,9.77952947 9.60853939,10.4477612 8.79864636,10.4477612 C7.98875335,10.4477612 7.33220535,9.77952946 7.33220535,8.95522388 C7.33220535,8.1309183 7.98875335,7.46268657 8.79864636,7.46268657 L8.79864636,7.46268657 Z M16.1308517,7.46268657 C16.9407447,7.46268657 17.5972927,8.13091829 17.5972927,8.95522388 C17.5972927,9.77952947 16.9407447,10.4477612 16.1308517,10.4477612 C15.3209587,10.4477612 14.6644107,9.77952946 14.6644107,8.95522388 C14.6644107,8.1309183 15.3209587,7.46268657 16.1308517,7.46268657 Z M25.7096447,8.26268656 L18.0694867,0.217910454 C17.7175409,-0.150746257 17.0459109,-0.0402985075 16.5678511,0.46417911 C16.0883249,0.968656728 15.9842076,1.67611941 16.3332205,2.04477613 L22.8984772,8.95522388 L16.334687,15.8656716 C15.9827411,16.2343283 16.0883249,16.9432836 16.5678511,17.4477612 C17.0459109,17.9507463 17.7190073,18.0597015 18.0694867,17.6925373 L25.7096447,9.6477612 C25.874905,9.45909655 25.9481263,9.20483699 25.9090806,8.95522388 C25.9479131,8.70562465 25.8747181,8.45145671 25.7096447,8.26268656 L25.7096447,8.26268656 Z" id="形状"></path>
                    </g>
                </g>
            </g>
        </g>
    </g>
</svg>