<?xml version="1.0" encoding="UTF-8"?>
<svg width="16px" height="16px" viewBox="0 0 16 16" version="1.1" xmlns="http://www.w3.org/2000/svg" xmlns:xlink="http://www.w3.org/1999/xlink">
    <title>形状结合</title>
    <g id="页面-1" stroke="none" stroke-width="1" fill="none" fill-rule="evenodd">
        <g id="请假申请详情页（审核不通过）" transform="translate(-1148.000000, -306.000000)" fill="#EF5656" fill-rule="nonzero">
            <g id="编组-9" transform="translate(1124.000000, 238.000000)">
                <path d="M32,68 C36.418278,68 40,71.581722 40,76 C40,80.418278 36.418278,84 32,84 C27.581722,84 24,80.418278 24,76 C24,71.581722 27.581722,68 32,68 Z M32,69 C28.1340068,69 25,72.1340068 25,76 C25,79.8659932 28.1340068,83 32,83 C35.8659932,83 39,79.8659932 39,76 C39,72.1340068 35.8659932,69 32,69 Z M29.1617289,73.1715729 C29.356991,72.9763107 29.6735735,72.9763107 29.8688356,73.1715729 L29.8688356,73.1715729 L31.99,75.293 L34.1114763,73.1715729 C34.3067385,72.9763107 34.623321,72.9763107 34.8185831,73.1715729 C35.0138453,73.366835 35.0138453,73.6834175 34.8185831,73.8786797 L32.697,76 L34.8185831,78.1213203 C34.9921495,78.2948867 35.0114346,78.5643111 34.8764386,78.7591792 L34.8185831,78.8284271 C34.623321,79.0236893 34.3067385,79.0236893 34.1114763,78.8284271 L34.1114763,78.8284271 L31.99,76.707 L29.8688356,78.8284271 C29.6735735,79.0236893 29.356991,79.0236893 29.1617289,78.8284271 C28.9664667,78.633165 28.9664667,78.3165825 29.1617289,78.1213203 L31.283,76 L29.1617289,73.8786797 C28.9881625,73.7051133 28.9688774,73.4356889 29.1038734,73.2408208 Z" id="形状结合"></path>
            </g>
        </g>
    </g>
</svg>