<?xml version="1.0" encoding="UTF-8"?>
<svg width="32px" height="32px" viewBox="0 0 32 32" version="1.1" xmlns="http://www.w3.org/2000/svg" xmlns:xlink="http://www.w3.org/1999/xlink">
    <title>编组 8</title>
    <defs>
        <filter x="-64.3%" y="-64.3%" width="228.6%" height="228.6%" filterUnits="objectBoundingBox" id="filter-1">
            <feGaussianBlur stdDeviation="3" in="SourceGraphic"></feGaussianBlur>
        </filter>
    </defs>
    <g id="页面-1" stroke="none" stroke-width="1" fill="none" fill-rule="evenodd">
        <g id="请假申请详情页-(店长未审核)" transform="translate(-1373.000000, -166.000000)">
            <g id="编组-9" transform="translate(1124.000000, 72.000000)">
                <g id="编组-2" transform="translate(24.000000, 66.000000)">
                    <g id="编组-8" transform="translate(232.000000, 31.000000)">
                        <circle id="椭圆形" fill="#247257" opacity="0.677269345" filter="url(#filter-1)" cx="8.99803453" cy="13" r="7"></circle>
                        <circle id="椭圆形" fill="#247257" cx="8.99803453" cy="9" r="9"></circle>
                        <path d="M10.4586173,9.95136391 C10.7679829,9.64199834 11.2466442,9.61419821 11.5838099,9.89540724 L12.6815587,10.7671909 C13.0472373,11.0487563 13.103194,11.5833742 12.8223414,11.9486965 C12.7938284,11.9772094 12.7938284,12.0050096 12.7660283,12.0050096 L12.0065144,12.7648798 C11.2751571,13.4958807 9.30491186,12.4548014 7.41949264,10.5697386 C5.53478625,8.68431943 4.52043784,6.74401277 5.22399503,6.01265545 L5.98386531,5.25314159 C6.32210025,4.91561947 6.85671817,4.91561947 7.16608375,5.25314159 L7.22239684,5.30909827 L8.09489329,6.40613424 C8.37610232,6.74329994 8.3486586,7.2219612 8.03893662,7.53132677 L7.56027537,8.00998802 C7.86999735,8.51609299 8.20787588,8.9665977 8.60099826,9.36078931 C8.99412063,9.75498093 9.44533817,10.0921466 9.95179955,10.4015122 L10.4586173,9.95136391 Z M9.87766586,5.62309719 C9.69054959,5.62309719 9.56616182,5.49906583 9.56616182,5.31159314 C9.56616182,5.12447687 9.69161883,5.0000891 9.87766586,5.0000891 C11.5930766,5.0000891 12.9962704,6.40328295 12.9962704,8.11798084 C12.9962704,8.30509712 12.8708134,8.42948489 12.68441,8.42948489 C12.4972937,8.42948489 12.3729059,8.30509712 12.3729059,8.11798084 C12.3721931,6.74543842 11.249139,5.62309719 9.87802227,5.62309719 L9.87766586,5.62309719 Z M9.87766586,6.87053902 C9.69054959,6.87053902 9.56616182,6.74650766 9.56616182,6.55903497 C9.56616182,6.37156229 9.69161883,6.24752991 9.87766586,6.24752991 C10.9069836,6.24646169 11.7488286,7.08866313 11.7488286,8.11798084 C11.7488286,8.30509712 11.6240844,8.42948489 11.4373246,8.42948489 C11.2502083,8.42948489 11.1258205,8.30509712 11.1258205,8.11798084 C11.1232773,7.42981594 10.5658321,6.87268913 9.87766586,6.87053902 Z" id="形状" fill="#FFFFFF" fill-rule="nonzero"></path>
                    </g>
                </g>
            </g>
        </g>
    </g>
</svg>