<?xml version="1.0" encoding="UTF-8"?>
<svg width="16px" height="16px" viewBox="0 0 16 16" version="1.1" xmlns="http://www.w3.org/2000/svg" xmlns:xlink="http://www.w3.org/1999/xlink">
    <title>形状结合</title>
    <g id="页面-1" stroke="none" stroke-width="1" fill="none" fill-rule="evenodd">
        <g id="请假申请详情页（审核不通过）" transform="translate(-1148.000000, -428.000000)" fill="#0DA88B" fill-rule="nonzero">
            <g id="编组-9" transform="translate(1124.000000, 238.000000)">
                <path d="M32,190 C36.418278,190 40,193.581722 40,198 C40,202.418278 36.418278,206 32,206 C27.581722,206 24,202.418278 24,198 C24,193.581722 27.581722,190 32,190 Z M32,191 C28.1340068,191 25,194.134007 25,198 C25,201.865993 28.1340068,205 32,205 C35.8659932,205 39,201.865993 39,198 C39,194.134007 35.8659932,191 32,191 Z M35.317627,195.51386 C35.5071976,195.669789 35.5525033,195.936076 35.4370285,196.14311 L35.3861565,196.217639 L31.74825,200.640447 C31.5861706,200.837496 31.3065305,200.877559 31.0980351,200.747533 L31.0235528,200.690774 L28.6614593,198.517468 C28.4582452,198.330496 28.4450788,198.014187 28.6320511,197.810973 C28.7982488,197.630339 29.066638,197.599865 29.266952,197.72664 L29.3385461,197.781565 L31.3110323,199.595916 L34.6138489,195.58239 C34.789268,195.369123 35.1043602,195.338441 35.317627,195.51386 Z" id="形状结合"></path>
            </g>
        </g>
    </g>
</svg>