<?xml version="1.0" encoding="UTF-8"?>
<svg width="16px" height="16px" viewBox="0 0 16 16" version="1.1" xmlns="http://www.w3.org/2000/svg" xmlns:xlink="http://www.w3.org/1999/xlink">
    <title>形状结合</title>
    <g id="页面-1" stroke="none" stroke-width="1" fill="none" fill-rule="evenodd">
        <g id="请假申请详情页-(店长未审核)" transform="translate(-1148.000000, -306.000000)" fill="#F6A420" fill-rule="nonzero">
            <g id="编组-9" transform="translate(1124.000000, 238.000000)">
                <path d="M32,68 C36.418278,68 40,71.581722 40,76 C40,80.418278 36.418278,84 32,84 C27.581722,84 24,80.418278 24,76 C24,71.581722 27.581722,68 32,68 Z M32,69 C28.1340068,69 25,72.1340068 25,76 C25,79.8659932 28.1340068,83 32,83 C35.8659932,83 39,79.8659932 39,76 C39,72.1340068 35.8659932,69 32,69 Z M32,72 C32.2454599,72 32.4496084,72.1768752 32.4919443,72.4101244 L32.5,72.5 L32.5,75.793 L34.8535534,78.1464466 C35.0271197,78.320013 35.0464049,78.5894374 34.9114088,78.7843055 L34.8535534,78.8535534 C34.679987,79.0271197 34.4105626,79.0464049 34.2156945,78.9114088 L34.1464466,78.8535534 L31.5,76.2071068 L31.5,72.5 C31.5,72.2238576 31.7238576,72 32,72 Z" id="形状结合"></path>
            </g>
        </g>
    </g>
</svg>